<svg id="Instagram" xmlns="http://www.w3.org/2000/svg" width="40" height="40" viewBox="0 0 40 40">
  <path id="Контур_4865" data-name="Контур 4865" d="M45.075,24.41H30.5a6.1,6.1,0,0,0-6.09,6.09V45.075a6.1,6.1,0,0,0,6.09,6.093H45.075a6.1,6.1,0,0,0,6.093-6.093V30.5A6.1,6.1,0,0,0,45.075,24.41ZM37.788,46.171a8.384,8.384,0,1,1,8.384-8.384,8.384,8.384,0,0,1-8.384,8.384Zm10.229-15.6a2.117,2.117,0,1,1,.622-1.5A2.117,2.117,0,0,1,48.017,30.574Z" transform="translate(-17.785 -17.785)" fill="#ffd400" fill-rule="evenodd"/>
  <path id="Контур_4866" data-name="Контур 4866" d="M58.982,53.45a5.5,5.5,0,1,0,5.51,5.5A5.5,5.5,0,0,0,58.982,53.45Z" transform="translate(-38.98 -38.943)" fill="#ffd400" fill-rule="evenodd"/>
  <path id="Контур_4867" data-name="Контур 4867" d="M33.217,0H6.785A6.81,6.81,0,0,0,0,6.785v26.43A6.807,6.807,0,0,0,6.785,40h26.43A6.807,6.807,0,0,0,40,33.215V6.785A6.807,6.807,0,0,0,33.217,0Zm3.051,27.29a8.989,8.989,0,0,1-8.978,8.978H12.715A8.989,8.989,0,0,1,3.737,27.29V12.715a8.989,8.989,0,0,1,8.978-8.978H27.29a8.989,8.989,0,0,1,8.978,8.978Z" fill="#ffd400" fill-rule="evenodd"/>
</svg>
